<?xml version="1.0" encoding="utf-8"?>
<!-- Generator: Adobe Illustrator 22.0.0, SVG Export Plug-In . SVG Version: 6.00 Build 0)  -->
<svg version="1.1" id="Layer_1" xmlns="http://www.w3.org/2000/svg" xmlns:xlink="http://www.w3.org/1999/xlink" x="0px" y="0px"
	 viewBox="0 0 1748 765.2" style="enable-background:new 0 0 1748 765.2;" xml:space="preserve">
<style type="text/css">
	.st0{fill:#121745;}
	.st1{fill:#F7941D;}
	.st2{font-family:'Avenir-Roman';}
	.st3{font-size:188.923px;}
</style>
<g>
	<text transform="matrix(1 0 0 1 638.5371 442.6936)" class="st0 st2 st3">GIGSASA</text>
</g>
<g>
	<g id="gxxtHv_1_">
		<g>
			<path class="st0" d="M550.5,411.5c-13.9,65.1-75.2,102-135.3,89.8c-51.7-10.5-90.3-57.1-91.3-109.6
				c-1-53.3,35.4-100.8,87.3-113.7c3.1-0.8,7-0.9,10.4-1.3l-2.2-46.1c-2.9,0.4-6.4,1.2-10.8,2.1C320.6,251,267,330.1,282.2,419.2
				c14.9,87.3,107,147,192.9,124.9c65.5-16.8,109.8-65.5,121.1-132.6H550.5z"/>
			<path class="st1" d="M577.3,311.2c-1.8-3.1-3.4-5-7.9-4.8c-23.4,1.4-44-17.8-43.8-41.3c0.1-7.5-2.6-11.2-8.7-14.6
				c-17.8-10.1-36.9-16.1-57-19.4l0.3,46.3c7.7,1.3,16,1.5,22.6,5c9.3,4.9,18.5,10.3,26.8,17.4c19.7,16.9,32.8,37.6,40,62.3
				c1,3.4,0.7,7.6,1.1,11.2l46-1.1C593,350.9,588.5,330,577.3,311.2z"/>
			<path class="st1" d="M534.3,263.5c0-19.8,13.8-32.7,33.3-34.1c19.7-1.4,35.3,21.3,35,34.3c-0.4,18.3-15.9,34-34.2,34.3
				C552.8,298.2,532,283,534.3,263.5z"/>
			<path class="st0" d="M620.2,538.6c-0.7,12.4-19.8,30.2-32.2,30.3c-2.2,0-3.5-1-4.7-2.3c-12-12.7-24-25.6-36.1-38.2
				c-2.9-3-3.1-4.4,0.5-6.9c10.5-7.1,19-16.3,26.1-26.7c2-2.9,3.2-3.2,5.7-0.7c12.9,13.2,25.9,26.4,38.8,39.6
				C619.6,535.1,620.6,536.5,620.2,538.6z M591.6,558.4c-0.6,0.6-1.2,1.3-1.9,1.9c-11.9-12.4-23.9-24.7-35.8-37.1
				c0.4-0.4,0.9-0.9,1.3-1.3C567.4,534,579.5,546.2,591.6,558.4z"/>
		</g>
	</g>
	<path class="st0" d="M473,388.3c9.6,0,18.1,0,27.6,0c0.2,3.1,0.6,6.2,0.6,9.3c0,13-0.5,26.1,0.1,39.1c0.4,7.8-2.3,12.4-8.8,16.5
		c-24.8,15.8-59.5,15.4-83.9-1.4c-26.1-18-39-49.2-32.7-78.9c12.4-58.1,80.1-82.3,125-44c-4.8,7.9-9.6,16-13.7,22.7
		c-10.5-4-20.2-9.1-30.5-11.2c-18.5-3.8-37.9,7-47.4,24.2c-9.8,17.8-7.7,38.4,5.4,53.8c13.1,15.4,33.1,21.1,51.3,15
		c5.4-1.8,7.3-4.7,7.1-10.3C472.7,411.8,473,400.6,473,388.3z"/>
</g>
</svg>
